<svg width="25" height="24" viewBox="0 0 25 24" fill="none" xmlns="http://www.w3.org/2000/svg">
  <path d="M15.25 8c0-1.062-.594-2.031-1.5-2.594-.937-.531-2.094-.531-3 0-.937.563-1.5 1.532-1.5 2.594a3.03 3.03 0 0 0 1.5 2.625c.906.531 2.063.531 3 0 .906-.562 1.5-1.531 1.5-2.625m-7 0c0-1.406.75-2.719 2-3.437a3.97 3.97 0 0 1 4 0c1.219.718 2 2.03 2 3.437 0 1.438-.781 2.75-2 3.469a3.98 3.98 0 0 1-4 0A3.98 3.98 0 0 1 8.25 8m-2 11h12c-.062-2.469-2.094-4.5-4.594-4.5h-2.844A4.575 4.575 0 0 0 6.25 19m-1 .094C5.25 16 7.719 13.5 10.813 13.5h2.843c3.094 0 5.594 2.5 5.594 5.594 0 .5-.437.906-.937.906H6.156a.907.907 0 0 1-.906-.906" fill="#000" fill-opacity=".72"/>
</svg>
