<svg width="25" height="24" viewBox="0 0 25 24" fill="none" xmlns="http://www.w3.org/2000/svg">
  <path d="M13.25 5h-6c-.281 0-.5.25-.5.5v1c0 .281.219.5.5.5h6c.25 0 .5-.219.5-.5v-1c0-.25-.25-.5-.5-.5m-6-1h6c.813 0 1.5.688 1.5 1.5v1a1.5 1.5 0 0 1-1.5 1.5h-2.5v1H18c1 0 1.844.75 1.969 1.719l.75 5.156c0 .094.031.188.031.281V18c0 1.125-.906 2-2 2h-12c-1.125 0-2-.875-2-2v-2.125l.75-5.156A1.99 1.99 0 0 1 7.469 9H9.75V8h-2.5a1.48 1.48 0 0 1-1.5-1.5v-1A1.5 1.5 0 0 1 7.25 4m-1.5 14c0 .563.438 1 1 1h12c.531 0 1-.437 1-1v-1h-14zM19 10.875c-.094-.5-.5-.875-1-.875H7.469c-.5 0-.907.375-1 .875L5.75 16h13.969zm-10.75.375A.76.76 0 0 1 9 12a.74.74 0 0 1-.75.75.72.72 0 0 1-.75-.75.74.74 0 0 1 .75-.75m2.25.75a.74.74 0 0 1 .75-.75.76.76 0 0 1 .75.75.74.74 0 0 1-.75.75.72.72 0 0 1-.75-.75m-.75 1.75a.76.76 0 0 1 .75.75.74.74 0 0 1-.75.75.72.72 0 0 1-.75-.75.74.74 0 0 1 .75-.75M13.5 12a.74.74 0 0 1 .75-.75.76.76 0 0 1 .75.75.74.74 0 0 1-.75.75.72.72 0 0 1-.75-.75m-.75 1.75a.76.76 0 0 1 .75.75.74.74 0 0 1-.75.75.72.72 0 0 1-.75-.75.74.74 0 0 1 .75-.75M16.5 12a.74.74 0 0 1 .75-.75.76.76 0 0 1 .75.75.74.74 0 0 1-.75.75.72.72 0 0 1-.75-.75m-.75 1.75a.76.76 0 0 1 .75.75.74.74 0 0 1-.75.75.72.72 0 0 1-.75-.75.74.74 0 0 1 .75-.75" fill="#000" fill-opacity=".72"/>
</svg>
