<svg width="268" height="38" viewBox="0 0 268 38" fill="none" xmlns="http://www.w3.org/2000/svg"><g clip-path="url(#a)" fill="#00D0FF"><g clip-path="url(#b)"><path d="M26.5 13h12c-1-3-9-17-25-10 8 0 12 7 13 10m0 12h12c-1 3-9 17-25 10 8 0 12-7 13-10m-23-14h11s-3 2-3 8 3 8 3 8h-11s-3-2-3-8 3-8 3-8"/></g><path d="M55.428 22.272c-5.112 0-8.928-3.792-8.928-8.808 0-5.04 3.816-8.832 8.928-8.832 4.392 0 7.8 2.904 8.496 7.152H59.22c-.576-1.704-2.016-2.832-3.792-2.832-2.376 0-4.128 1.92-4.128 4.512s1.752 4.488 4.128 4.488c1.872 0 3.336-1.224 3.816-3.096h4.728c-.648 4.416-4.08 7.416-8.544 7.416M73.888 8.52c2.976 0 4.896 2.16 4.896 5.52v7.8H74.32v-7.272c0-1.488-.528-2.256-1.704-2.256-1.344 0-2.184.96-2.184 2.616v6.912h-4.464V4.2h4.464v5.544a5.5 5.5 0 0 1 3.456-1.224m18.013.36h3.336v12.96h-3.456l-.384-.912c-1.056.864-2.4 1.344-3.912 1.344-3.96 0-6.792-2.88-6.792-6.912 0-4.008 2.832-6.864 6.792-6.864 1.536 0 2.904.504 3.96 1.392zm-3.816 9.456c1.68 0 2.904-1.272 2.904-2.976 0-1.68-1.224-2.928-2.904-2.928s-2.904 1.248-2.904 2.928c0 1.704 1.224 2.976 2.904 2.976m25.233-9.816c2.784 0 4.608 2.16 4.608 5.208v8.112h-4.464v-7.56c0-1.368-.48-2.016-1.44-2.016-1.224 0-1.848.84-1.848 2.472v7.104h-4.344v-7.56c0-1.32-.504-2.016-1.44-2.016-1.2 0-1.872.864-1.872 2.472v7.104h-4.464V8.88h3.144l.624 1.416a4.97 4.97 0 0 1 3.792-1.776c1.584 0 2.904.696 3.72 1.896.936-1.176 2.376-1.896 3.984-1.896m14.867-.048c3.96 0 6.792 2.856 6.792 6.888 0 4.056-2.832 6.936-6.792 6.936a6.1 6.1 0 0 1-3.168-.864v5.088h-4.416V8.88h3.048l.552 1.032c1.056-.912 2.424-1.44 3.984-1.44m-.6 9.864c1.656 0 2.904-1.272 2.904-2.976 0-1.68-1.248-2.952-2.904-2.952-1.68 0-2.904 1.272-2.904 2.952 0 1.704 1.224 2.976 2.904 2.976m9.446-11.064V3.48h4.416v3.792zm-.024 14.568V8.88h4.464v12.96zm13.77.432c-4.224 0-7.248-2.904-7.248-6.912s3.024-6.888 7.248-6.888 7.272 2.88 7.272 6.888-3.048 6.912-7.272 6.912m0-4.008c1.632 0 2.808-1.176 2.808-2.88s-1.176-2.904-2.808-2.904c-1.608 0-2.784 1.176-2.784 2.904 0 1.704 1.176 2.88 2.784 2.88m17.164-9.744c3 0 4.992 2.136 4.992 5.424v7.896h-4.464v-7.272c0-1.512-.576-2.256-1.704-2.256-1.392 0-2.184.96-2.184 2.616v6.912h-4.464V8.88h3.144l.6 1.344c.96-1.08 2.4-1.704 4.08-1.704m30.211-3.48v4.176h-4.56V21.84h-4.656V9.216h-4.56V5.04zm8.588 3.792h1.2v4.08h-1.752c-1.56 0-2.232.696-2.232 2.352v6.576h-4.464V8.88h3l.696 1.44c.912-1.056 2.016-1.488 3.552-1.488m13.13.048h3.336v12.96h-3.456l-.384-.912c-1.056.864-2.4 1.344-3.912 1.344-3.96 0-6.792-2.88-6.792-6.912 0-4.008 2.832-6.864 6.792-6.864 1.536 0 2.904.504 3.96 1.392zm-3.816 9.456c1.68 0 2.904-1.272 2.904-2.976 0-1.68-1.224-2.928-2.904-2.928s-2.904 1.248-2.904 2.928c0 1.704 1.224 2.976 2.904 2.976M235.287 4.2h4.416v17.64h-3.288l-.432-.96a6 6 0 0 1-3.912 1.416c-3.96 0-6.792-2.904-6.792-6.936 0-4.008 2.832-6.888 6.792-6.888 1.2 0 2.304.312 3.216.888zm-2.616 14.136c1.68 0 2.904-1.272 2.904-2.952 0-1.704-1.224-2.976-2.904-2.976-1.656 0-2.904 1.272-2.904 2.976 0 1.68 1.248 2.952 2.904 2.952m23.173-3.096c0 .408-.024.792-.072 1.2h-9.624c.288 1.488 1.224 2.256 2.64 2.256 1.032 0 1.92-.456 2.328-1.224h4.464c-.912 2.952-3.552 4.8-6.792 4.8-4.056 0-7.032-2.952-7.032-6.912s2.952-6.888 7.032-6.888c4.176 0 7.056 2.976 7.056 6.768m-7.056-3.264c-1.296 0-2.208.696-2.568 1.992h5.232c-.384-1.296-1.32-1.992-2.664-1.992m16.335-3.144h1.2v4.08h-1.752c-1.56 0-2.232.696-2.232 2.352v6.576h-4.464V8.88h3l.696 1.44c.912-1.056 2.016-1.488 3.552-1.488M47.28 34.02v-7.273h1.285v2.72h.054q.1-.198.28-.422.18-.227.49-.387.309-.164.789-.164.63 0 1.14.324.51.32.81.948.3.625.301 1.534 0 .899-.295 1.527-.294.629-.802.959t-1.15.33q-.47 0-.779-.156a1.6 1.6 0 0 1-.497-.377 2.4 2.4 0 0 1-.287-.422h-.075v.859zm1.26-2.727q0 .528.15.927.152.398.436.621.288.22.696.22.426 0 .714-.227a1.4 1.4 0 0 0 .433-.629q.15-.4.15-.912 0-.509-.146-.902a1.36 1.36 0 0 0-.433-.618q-.288-.224-.718-.224-.41 0-.7.217a1.33 1.33 0 0 0-.436.607 2.6 2.6 0 0 0-.145.92m5.595 4.773a2.6 2.6 0 0 1-.838-.136l.299-1q.28.081.5.077a.6.6 0 0 0 .387-.138q.171-.132.288-.44l.11-.295-1.978-5.568h1.364l1.257 4.119h.057l1.26-4.12h1.367l-2.183 6.116a2.5 2.5 0 0 1-.405.742 1.65 1.65 0 0 1-.618.476q-.362.165-.867.166m10.194-9.293-.413 2.34h-1.432c-1.337 0-2.611 1.083-2.847 2.42l-.1.568c-.235 1.336.656 2.419 1.993 2.419h1.195c.974 0 1.903-.789 2.074-1.762l1.1-6.237zm-1.017 5.764c-.052.3-.323.546-.624.546h-.726c-.601 0-1.003-.488-.898-1.09l.063-.354c.107-.6.68-1.09 1.28-1.09h1.256zm12.052 1.983.94-5.332h1.487l-.94 5.332zm.16-5.27-.223 1.268a3.8 3.8 0 0 0-1.655-.104l-.724 4.107h-1.488l.892-5.058a5.03 5.03 0 0 1 3.199-.214m-6.03-.138h-1.157c-1.128 0-2.203.914-2.402 2.042l-.234 1.325c-.199 1.127.554 2.041 1.682 2.041h2.462l.253-1.433h-2.314c-.376 0-.628-.304-.56-.68l.007-.046h3.731l.213-1.207c.2-1.128-.553-2.042-1.681-2.042m.189 1.927-.01.077h-2.218l.012-.068c.067-.375.41-.706.787-.706h.866c.373 0 .624.325.563.697m12.423-1.851h1.488c-.507 1.347-1.669 3.64-2.794 5.332h-1.488c-.517-1.611-.85-3.855-.914-5.332h1.488c.027.482.243 2.268.489 3.517a48 48 0 0 0 1.73-3.517z"/></g><defs><clipPath id="a"><path fill="#fff" d="M.5 0h267v38H.5z"/></clipPath><clipPath id="b"><path fill="#fff" d="M.5 0h38v38H.5z"/></clipPath></defs></svg>