<svg width="25" height="24" viewBox="0 0 25 24" fill="none" xmlns="http://www.w3.org/2000/svg">
  <path d="M19.25 12c0-2.5-1.344-4.781-3.5-6.031-2.187-1.282-4.844-1.282-7 0A6.9 6.9 0 0 0 5.25 12c0 2.531 1.313 4.813 3.5 6.063 2.156 1.28 4.813 1.28 7 0A6.98 6.98 0 0 0 19.25 12m-15 0a7.94 7.94 0 0 1 4-6.906c2.469-1.438 5.5-1.438 8 0 2.469 1.437 4 4.062 4 6.906a8.02 8.02 0 0 1-4 6.938c-2.5 1.437-5.531 1.437-8 0a7.95 7.95 0 0 1-4-6.938m7.5-4.5c0-.25.219-.5.5-.5.25 0 .5.25.5.5v4h3c.25 0 .5.25.5.5 0 .281-.25.5-.5.5h-3.5a.494.494 0 0 1-.5-.5z" fill="#000" fill-opacity=".72"/>
</svg>
