<?xml version="1.0" encoding="UTF-8"?>
<svg width="212" height="212" viewBox="0 0 212 212" fill="none" xmlns="http://www.w3.org/2000/svg">
  <!-- Base circles similar to trading chart illustration for consistency -->
  <path d="M106.021 197.059c-10.808 0-21.292-2.117-31.162-6.291-9.534-4.033-18.095-9.805-25.448-17.158-7.352-7.352-13.125-15.914-17.157-25.447-4.175-9.87-6.291-20.355-6.291-31.163s2.116-21.292 6.291-31.162c4.032-9.533 9.805-18.095 17.157-25.447S65.325 47.266 74.86 43.233c9.87-4.174 20.354-6.291 31.162-6.291s21.292 2.117 31.163 6.291a79.8 79.8 0 0 1 25.447 17.158c7.353 7.352 13.125 15.914 17.157 25.447 4.175 9.87 6.292 20.355 6.292 31.162 0 10.808-2.117 21.293-6.292 31.163-4.032 9.533-9.804 18.095-17.157 25.447a79.8 79.8 0 0 1-25.447 17.158c-9.871 4.174-20.355 6.291-31.163 6.291" fill="#2ED7FE"/>
  
  <!-- Rocket body composed of trading elements -->
  <path d="M106 40c0 0-20 15-20 40l20 80 20-80c0-25-20-40-20-40z" fill="url(#rocket-gradient)"/>
  
  <!-- Rocket fins -->
  <path d="M86 80l-15 20 15 10V80zM126 80l15 20-15 10V80z" fill="url(#fins-gradient)"/>
  
  <!-- Candlestick stepping stones -->
  <g id="candlesticks">
    <rect x="66" y="120" width="4" height="20" fill="url(#candlestick-gradient)"/>
    <rect x="86" y="110" width="4" height="30" fill="url(#candlestick-gradient)"/>
    <rect x="106" y="100" width="4" height="40" fill="url(#candlestick-gradient)"/>
    <rect x="126" y="90" width="4" height="50" fill="url(#candlestick-gradient)"/>
    <rect x="146" y="80" width="4" height="60" fill="url(#candlestick-gradient)"/>
  </g>
  
  <!-- Fibonacci spiral -->
  <path d="M106 140c-10 0-20-10-20-20 0-10 10-20 20-20 10 0 20 10 20 20" 
        stroke="url(#spiral-gradient)" 
        stroke-width="2" 
        fill="none"
        transform="rotate(45, 106, 106)"/>
  
  <!-- Rising chart line -->
  <path d="M46 140c20-10 40-30 60-20 20 10 40-10 60-30" 
        stroke="url(#chart-gradient)" 
        stroke-width="2"
        fill="none"/>
  
  <!-- Particle effects -->
  <g id="particles">
    <circle cx="86" cy="100" r="2" fill="#fff"/>
    <circle cx="126" cy="100" r="2" fill="#fff"/>
    <circle cx="106" cy="80" r="2" fill="#fff"/>
    <circle cx="96" cy="120" r="2" fill="#fff"/>
    <circle cx="116" cy="120" r="2" fill="#fff"/>
  </g>
  
  <!-- Sacred geometry -->
  <g id="sacred-geometry" opacity="0.3">
    <circle cx="106" cy="106" r="40" stroke="#2ED7FE" stroke-width="1" fill="none"/>
    <path d="M76 106h60M106 76v60" stroke="#2ED7FE" stroke-width="1"/>
    <path d="M84 84l44 44M84 128l44-44" stroke="#2ED7FE" stroke-width="1"/>
  </g>
  
  <!-- Decorative stars similar to trading chart illustration -->
  <path d="m187.533 80.269 3.866 7.524 8.351 1.353-5.961 6.002 1.294 8.36-7.55-3.814-7.551 3.814 1.294-8.36-5.961-6.002 8.351-1.353z" fill="url(#star-gradient-1)"/>
  <path d="m34.995 147.299 3.275 6.372 7.072 1.145-5.048 5.084 1.096 7.08-6.395-3.23-6.395 3.23 1.096-7.08-5.048-5.084 7.072-1.145z" fill="url(#star-gradient-2)"/>
  <path d="m134.358 14.94 1.554 3.026 3.358.544-2.397 2.413.521 3.362-3.036-1.534-3.036 1.534.52-3.362-2.397-2.413 3.358-.544z" fill="url(#star-gradient-3)"/>
  
  <!-- Gradients -->
  <defs>
    <linearGradient id="rocket-gradient" x1="106" y1="40" x2="106" y2="160" gradientUnits="userSpaceOnUse">
      <stop offset="0" stop-color="#fff"/>
      <stop offset="0.5" stop-color="#9BEBFE"/>
      <stop offset="1" stop-color="#2ED7FE"/>
    </linearGradient>
    
    <linearGradient id="fins-gradient" x1="71" y1="80" x2="71" y2="110" gradientUnits="userSpaceOnUse">
      <stop offset="0" stop-color="#fff"/>
      <stop offset="1" stop-color="#2ED7FE"/>
    </linearGradient>
    
    <linearGradient id="candlestick-gradient" x1="66" y1="80" x2="66" y2="140" gradientUnits="userSpaceOnUse">
      <stop offset="0" stop-color="#fff"/>
      <stop offset="1" stop-color="#2ED7FE"/>
    </linearGradient>
    
    <linearGradient id="spiral-gradient" x1="86" y1="100" x2="126" y2="140" gradientUnits="userSpaceOnUse">
      <stop offset="0" stop-color="#fff"/>
      <stop offset="1" stop-color="#2ED7FE"/>
    </linearGradient>
    
    <linearGradient id="chart-gradient" x1="46" y1="140" x2="166" y2="90" gradientUnits="userSpaceOnUse">
      <stop offset="0" stop-color="#fff"/>
      <stop offset="1" stop-color="#2ED7FE"/>
    </linearGradient>
    
    <linearGradient id="star-gradient-1" x1="190.45" y1="76.404" x2="183.912" y2="104.954" gradientUnits="userSpaceOnUse">
      <stop stop-color="#fff"/>
      <stop offset="1" stop-color="#2ED7FE"/>
    </linearGradient>
    
    <linearGradient id="star-gradient-2" x1="37.466" y1="144.026" x2="31.929" y2="168.204" gradientUnits="userSpaceOnUse">
      <stop stop-color="#fff"/>
      <stop offset="1" stop-color="#2ED7FE"/>
    </linearGradient>
    
    <linearGradient id="star-gradient-3" x1="135.531" y1="13.387" x2="132.902" y2="24.866" gradientUnits="userSpaceOnUse">
      <stop stop-color="#fff"/>
      <stop offset="1" stop-color="#2ED7FE"/>
    </linearGradient>
  </defs>
</svg>
