<svg width="16" height="16" viewBox="0 0 16 16" fill="none" xmlns="http://www.w3.org/2000/svg"><g clip-path="url(#a)"><path d="M8 .25c4.25 0 7.75 3.5 7.75 7.75 0 4.281-3.5 7.75-7.75 7.75A7.75 7.75 0 0 1 .25 8C.25 3.75 3.719.25 8 .25m3.563 5.281a.53.53 0 0 0 0-.312c0-.063-.063-.157-.094-.188-.094-.093-.25-.093-.313-.093-.281 0-.75.156-2.906 1.062-.75.313-2.25.938-4.5 1.938-.375.156-.562.28-.594.437-.031.25.375.344.844.5.406.125.938.281 1.219.281.25 0 .531-.094.843-.312 2.094-1.438 3.188-2.156 3.25-2.156.063 0 .126-.032.157 0 .062.062.062.125.031.156-.031.156-2 1.968-2.125 2.093-.437.438-.937.72-.156 1.22.656.437 1.031.718 1.718 1.156.438.28.782.624 1.22.593.218-.031.437-.219.53-.812.282-1.344.782-4.344.876-5.563" fill="#00375C"/></g><defs><clipPath id="a"><path fill="#fff" d="M0 0h16v16H0z"/></clipPath></defs></svg>