<svg width="212" height="212" viewBox="0 0 212 212" fill="none" xmlns="http://www.w3.org/2000/svg">
  <path d="M106.021 197.059c-10.808 0-21.292-2.117-31.162-6.291-9.534-4.033-18.095-9.805-25.448-17.158-7.352-7.352-13.125-15.914-17.157-25.447-4.175-9.87-6.291-20.355-6.291-31.163s2.116-21.292 6.291-31.162c4.032-9.533 9.805-18.095 17.157-25.447S65.325 47.266 74.86 43.233c9.87-4.174 20.354-6.291 31.162-6.291s21.292 2.117 31.163 6.291a79.8 79.8 0 0 1 25.447 17.158c7.353 7.352 13.125 15.914 17.157 25.447 4.175 9.87 6.292 20.355 6.292 31.162 0 10.808-2.117 21.293-6.292 31.163-4.032 9.533-9.804 18.095-17.157 25.447a79.8 79.8 0 0 1-25.447 17.158c-9.871 4.174-20.355 6.291-31.163 6.291m0-159.837c-21.31 0-41.344 8.298-56.412 23.367C34.541 75.657 26.243 95.69 26.243 117s8.298 41.344 23.366 56.412c15.068 15.069 35.103 23.367 56.412 23.367 21.31 0 41.344-8.298 56.412-23.367C177.501 158.344 185.8 138.31 185.8 117s-8.299-41.343-23.367-56.411c-15.068-15.069-35.102-23.367-56.412-23.367" fill="#2ED7FE"/>
  <path d="M106.021 190.224c-17.31 0-33.583-6.741-45.823-18.981-12.24-12.239-18.98-28.513-18.98-45.822s6.74-33.583 18.98-45.823 28.514-18.98 45.823-18.98 33.583 6.74 45.823 18.98 18.981 28.513 18.981 45.823-6.741 33.583-18.981 45.822-28.513 18.981-45.823 18.981m0-129.327c-17.235 0-33.438 6.712-45.625 18.899-12.187 12.186-18.898 28.39-18.898 45.625s6.711 33.438 18.898 45.624 28.39 18.899 45.625 18.899 33.438-6.712 45.625-18.899c12.187-12.186 18.898-28.39 18.898-45.624s-6.711-33.439-18.898-45.625-28.39-18.899-45.625-18.899" fill="#2ED7FE"/>
  <path d="M89.945 15.828s-10.002 27.66-48.081 43.9l16.72 64.118c5.63 21.589 35.043 50.395 78.002 51.96 33.883-22.515 41.856-58.914 35.509-78.716l-18.908-58.984c-39.358-1.012-63.242-22.278-63.242-22.278" fill="url(#a)"/>
  <path d="m171.722 128.31.109-.402-.003-.001zm-35.136 47.496c-42.96-1.565-72.372-30.371-78.002-51.96l-16.72-64.119-1.49 5.462 16.72 64.119c5.63 21.589 35.043 50.395 78.002 51.96 19.446-12.921 30.355-30.415 34.923-46.72h.003l.056-.206.11-.403 1.35-4.954c-4.552 16.334-15.466 33.873-34.952 46.821" fill="#01375C"/>
  <path d="m77.804 100.171-1.894 1.945v7.603a1.3 1.3 0 0 0 .614 1.113l43.349 27.061c.582.364 1.303.187 1.609-.395L160.975 62.4l-4.549-14.19-37.48 58.639z" fill="#A4B0B6"/>
  <path d="M121.362 124.721 78.013 97.66c-.587-.367-.795-1.126-.464-1.696l6.645-11.44c.323-.557 1.055-.714 1.635-.35l30.053 18.81 40.058-73.846c.267-.492.917-.614 1.452-.274l10.862 6.899c.535.339.757 1.015.497 1.51l-45.78 87.052c-.306.582-1.026.759-1.609.396" fill="url(#b)"/>
  <path d="m168.751 37.273-45.78 87.052c-.306.582-1.026.759-1.609.396L78.013 97.66a1.3 1.3 0 0 1-.603-1.288l-.003-.002-1.463 5.334.004.002c-.14.518.08 1.107.576 1.416l43.349 27.061c.582.364 1.303.186 1.609-.396l45.779-87.052a1 1 0 0 0 .087-.265l.002-.003 1.475-5.385a1 1 0 0 1-.074.19" fill="#01375C"/>
  <path d="m187.533 80.269 3.866 7.524 8.351 1.353-5.961 6.002 1.294 8.36-7.55-3.814-7.551 3.814 1.294-8.36-5.961-6.002 8.351-1.353z" fill="url(#c)"/>
  <path d="m34.995 147.299 3.275 6.372 7.072 1.145-5.048 5.084 1.096 7.08-6.395-3.23-6.395 3.23 1.096-7.08-5.048-5.084 7.072-1.145z" fill="url(#d)"/>
  <path d="m134.358 14.94 1.554 3.026 3.358.544-2.397 2.413.521 3.362-3.036-1.534-3.036 1.534.52-3.362-2.397-2.413 3.358-.544z" fill="url(#e)"/>
  <path d="m90.775 176.123 2.476 4.817 5.346.867-3.816 3.843.829 5.352-4.835-2.442-4.834 2.442.828-5.352-3.816-3.843 5.346-.867z" fill="url(#f)"/>
  <path d="m17.211 89.57 1.57 3.055 3.391.55-2.42 2.437.525 3.394-3.066-1.548-3.066 1.548.525-3.394-2.42-2.438 3.39-.55z" fill="url(#g)"/>
  <defs>
    <linearGradient id="a" x1="136.791" y1="-14.366" x2="23.55" y2="394.812" gradientUnits="userSpaceOnUse">
      <stop stop-color="#fff"/>
      <stop offset=".077" stop-color="#EBFBFE"/>
      <stop offset=".413" stop-color="#9BEBFE"/>
      <stop offset=".69" stop-color="#60E0FE"/>
      <stop offset=".892" stop-color="#3BD9FE"/>
      <stop offset="1" stop-color="#2ED7FE"/>
    </linearGradient>
    <linearGradient id="b" x1="140.184" y1="-1.101" x2="110.67" y2="116.165" gradientUnits="userSpaceOnUse">
      <stop stop-color="#fff"/>
      <stop offset="1" stop-color="#2ED7FE"/>
    </linearGradient>
    <linearGradient id="c" x1="190.45" y1="76.404" x2="183.912" y2="104.954" gradientUnits="userSpaceOnUse">
      <stop stop-color="#fff"/>
      <stop offset="1" stop-color="#2ED7FE"/>
    </linearGradient>
    <linearGradient id="d" x1="37.466" y1="144.026" x2="31.929" y2="168.204" gradientUnits="userSpaceOnUse">
      <stop stop-color="#fff"/>
      <stop offset="1" stop-color="#2ED7FE"/>
    </linearGradient>
    <linearGradient id="e" x1="135.531" y1="13.387" x2="132.902" y2="24.866" gradientUnits="userSpaceOnUse">
      <stop stop-color="#fff"/>
      <stop offset="1" stop-color="#2ED7FE"/>
    </linearGradient>
    <linearGradient id="f" x1="92.643" y1="173.649" x2="88.457" y2="191.928" gradientUnits="userSpaceOnUse">
      <stop stop-color="#fff"/>
      <stop offset="1" stop-color="#2ED7FE"/>
    </linearGradient>
    <linearGradient id="g" x1="18.396" y1="88" x2="15.741" y2="99.593" gradientUnits="userSpaceOnUse">
      <stop stop-color="#fff"/>
      <stop offset="1" stop-color="#2ED7FE"/>
    </linearGradient>
  </defs>
</svg>
