<svg width="64" height="64" xmlns="http://www.w3.org/2000/svg" viewBox="0 0 64 64"><path fill="#F03D48" stroke="#F03D48" d="m52.454 9.237.66 1.32zm-3.959 1.32 2.309.33-2.309.33zm-3.959.66 1.649.33-1.649.33zm9.897 0q1.979.99 0 1.979zm-13.856.66 1.649.33-1.649.33zm-4.619.66 2.309.33-2.309.33zm-3.959.66 1.649.33-1.649.33zm-3.959.66 1.649.33-1.649.33zm-4.619.66 2.309.33-2.309.33zm-3.959.66 1.649.33-1.649.33zm34.309 0 .33 1.649h-.66zm-38.268.66 1.649.33-1.649.33zm-4.619.66 2.309.33-2.309.33zm-3.959.66 1.649.33-1.649.33zm46.186 1.32.33 1.649h-.66zm-.66 3.959.33 1.649h-.66zm-.66 3.299.33 1.649h-.66zm-1.32 7.258.33 1.649h-.66zm-1.32 7.258.33 1.649h-.66zm-1.32 7.258.33 1.649h-.66zm-.66 3.299.33 1.649h-.66zm7.918 3.299-.66 1.32zm-8.577.66.33 1.649h-.66zm6.598 1.32-.66 1.32zm-6.598 1.979 1.649.33-1.649.33z" stroke-width=".66"/><path fill="#FDE2E4" stroke="#FDE2E4" d="m37.938 26.392.33 13.526h-.66zm-19.794 1.979 2.309.33-2.309.33zm23.093 0 2.309.33-2.309.33zm-5.938.66.33 1.649h-.66zm-9.897.66.33 2.309h-.66zM32 31.67l-1.979 2.639zm13.196 0-.66 1.32zM33.98 32.99l-3.959 4.619zm-7.258 5.278.33 1.649h-.66zM9.567 56.082l.66 1.32zm44.206 0-.66 1.32z" stroke-width=".66"/><path fill="#FFF" stroke="#FFF" opacity=".988" d="m.33 1.32 63.01.33-63.01.329z" stroke-width=".66"/><path fill="#FF444F" stroke="#FF444F" d="M51.794 10.557q4.025-1.188 2.309 3.629l-1.32 3.959v3.299l-1.32 3.959v3.299l-1.32 3.959-3.959 24.412-.99.99h-32.33l-4.946-3.63-1.32-3.299v-33.32l23.423-3.299.66-.66h3.959l8.577-1.979h3.959zM17.155 25.732l-2.639.66v14.515q0 .66 3.299 0 1.32-1.32.66-4.619l5.938-1.32q1.979-1.32 1.32-5.938-1.979-3.959-8.577-3.299Zm12.536 0-1.979.66q-3.299 1.979 0 3.299l4.619-.66-.66 3.299-4.619 4.619-.66 3.959h9.897v-1.979l-.66-1.32h-5.278l4.619-4.619.66-4.619q-1.32-3.299-5.938-2.639Zm10.557 0-.66.66-1.979.66v13.856h3.299v-4.619q1.32-1.32 5.278-.66l2.639-2.639-.66-4.619q-1.979-3.299-7.918-2.639Z" stroke-width=".66"/><path fill="#FF444F" stroke="#FF444F" d="M18.474 29.031q3.101-.66 3.959 1.649l-.99 1.65-2.969.66zm22.433 0q3.035-.792 3.959.99.99 2.903-.99 2.309l-2.969.66z" stroke-width=".66"/><path fill="#FB999F" stroke="#FB999F" d="m9.567 9.897-1.32 1.979zm44.206 0 1.32 1.979zm3.299 5.938.33 33.979h-.66zm-50.804.66.33 33.32h-.66zm10.557 9.237 4.289.33-4.289.33zm12.536 0 3.629.33-3.629.33zm10.557 0 4.289.33-4.289.33zm-25.072.66.33 13.856h2.639v-4.619h1.649v.66q-1.781-.396-.99 3.629-.924 1.847-3.959.99zm12.536 0-.66 2.639-.99-.33-.33.99-1.649-2.309 1.649.99zm6.598 0 1.649 2.309h-.66zm13.196.66.66 1.32zm-17.155 1.32 1.649.33-1.649.33z" stroke-width=".66"/><path fill="#FB999F" stroke="#FB999F" d="m18.144 29.031.33 3.629h-.66zm3.299 0 .66 1.32zm27.052 0 .33 3.629h-.66zM22.103 31.67l-.66 1.32-.99-.33zm2.639 1.979-.66 1.32zm5.278 3.959h5.278l.99.99-.33 2.309h-9.237v-.66h8.577l.33-1.979H30.02zm7.918 2.639 2.969.33-2.969.33zM13.526 58.061l32.66.33-32.66.33zm34.969 0 1.649.33-1.649.33z" stroke-width=".66"/><path fill="#FFF" stroke="#FFF" d="M0 1.979h63.34V64H0zm13.196 5.938-2.639 1.32q-3.299 1.979-4.619 6.598v34.969l1.979 4.619 5.278 3.299h36.948l3.299-1.32q3.299-1.979 3.959-6.598V15.835l-1.32-3.299-5.278-4.619z" stroke-width=".66"/><path fill="#FFF" stroke="#FFF" d="M15.175 26.392q7.06-1.254 9.897 2.309 1.122 5.146-1.649 6.268l-5.609.66v4.619h-2.639zm2.639 1.979q-1.32 3.959 1.32 5.278l2.639-.66q1.32-.66.66-2.639-1.32-2.639-4.619-1.979Z" stroke-width=".66"/><path fill="#FFF" stroke="#FFF" d="M28.701 26.392q4.816-.792 6.268 1.649V32l-5.278 6.268h5.938v1.979h-8.577v-2.969l2.309-2.969L32.33 32l.66-1.979-.66-1.649-4.948.66q-1.979-.99 0-1.979zm9.567 0q7.06-1.254 9.897 2.309.528 4.025-.66 5.608-2.375 1.715-6.598 1.32v4.619h-2.639zm2.639 1.979v5.278l3.959-.66q1.32-.66.66-2.639-1.32-2.639-4.619-1.979Z" stroke-width=".66"/><path fill="#E12E3A" stroke="#E12E3A" d="M15.505 7.918h32.33l4.948 2.309-46.185 6.928q.066-4.948 3.629-7.258zm39.588 4.619 1.649 2.969v35.629l-2.639 4.947-3.629 1.979h-4.288l7.918-41.237v-3.299z" stroke-width=".66"/></svg>